<svg xmlns="http://www.w3.org/2000/svg" width="1366" height="32.193" viewBox="0 0 1366 32.193">
  <path id="svgexport-22" d="M1366-.165h-29.241c-.427.213-.961.107-1.6.32-1.921-.534-3.095.107-4.909.213-1.814-.107-3.522-.32-5.336-.32-7.684-.107-14.941.534-22.411.64a10.512,10.512,0,0,0-1.814.213,71.918,71.918,0,0,1-15.154,0,31.669,31.669,0,0,0-5.443-.32c-3.308.213-6.723,0-10.031,0-4.7,0-9.178.32-13.767.213-5.123-.107-9.6.854-14.727.534-.213,0-.747.107-.961.107a21.441,21.441,0,0,1-5.336.213,21.787,21.787,0,0,0-3.735,0,37.874,37.874,0,0,1-6.83-.427c-2.134.107-4.162.427-6.083.427-2.775,0-3.095.64-4.909.854h-.534a18.582,18.582,0,0,0-5.87.64,18.116,18.116,0,0,1-6.51.32,27.731,27.731,0,0,0-2.988,0c-3.948.32-8,.534-11.952.854-6.51.64-12.7,1.174-19.209,1.814a40.985,40.985,0,0,0-7.257,1.174c-2.561-.107-4.909-.213-7.257-.427-2.988.32-5.87.747-7.47,1.494a15.4,15.4,0,0,1-2.561.534c-4.269-.107-8.217-.32-12.166-.427-.534.107-1.174.32-1.921.427a26.744,26.744,0,0,1-3.948.32c-3.949-.213-7.47,0-11.206.107a71.241,71.241,0,0,0-10.245.961,23.317,23.317,0,0,1-8,.427c-1.814-.213-4.162-.107-6.083-.213a45.688,45.688,0,0,0-6.723.213,27.579,27.579,0,0,1-6.083.32,38.608,38.608,0,0,0-7.257.32c-2.134.213-4.269.427-6.51.534-1.921.107-4.482.107-5.656.64a16.944,16.944,0,0,1-5.443.64,44.2,44.2,0,0,0-8,.64,30.261,30.261,0,0,1-6.51.427,25.183,25.183,0,0,0-4.162.213,48.062,48.062,0,0,1-7.257.534c-1.921.854-4.909,1.281-9.178,1.067-3.522.427-7.9.213-10.779.961a11.48,11.48,0,0,1-4.7,0,27.534,27.534,0,0,0-7.257,0,35.28,35.28,0,0,1-8.217.107c-5.87-.534-11.739-.961-18.249-1.067a15.01,15.01,0,0,1-2.988-.32,41.748,41.748,0,0,0-9.071-.427c-2.134.107-4.482,0-7.043.107a45.2,45.2,0,0,0-8.644-.961,12,12,0,0,1-2.134-.213,43.1,43.1,0,0,0-11.205-.427c-7.47.427-15.154.747-22.731.961-1.387,0-2.775.213-4.162.32a61.946,61.946,0,0,0-14.3-.64c-3.522.107-7.043.534-10.992.534a17.109,17.109,0,0,0-4.909.64,6.674,6.674,0,0,1-2.775.213h-2.348c-5.656.854-12.806,1.174-16.862,2.561-6.51.213-12.806.427-18.782.64a103.875,103.875,0,0,1-15.261-.213,28.487,28.487,0,0,0-4.269,0,19.369,19.369,0,0,1-3.522,0,27.512,27.512,0,0,0-8,.427c-1.6-.213-2.775-.427-4.162-.64-1.6-.107-3.095-.32-4.7-.32-4.482.107-9.178.107-13.767,0a13.481,13.481,0,0,0-3.949.427c-2.134.64-5.122.64-8,.747-4.269.107-8.644.213-12.806.427-2.775.534-4.269,1.281-8.217,1.494a45.753,45.753,0,0,0-9.391-.107,35.3,35.3,0,0,0-5.122.64,27.407,27.407,0,0,1-4.269.64,24.809,24.809,0,0,0-7.257.961c-.214-.32-.961-.213-1.6-.213-3.735.32-7.9.213-11.526.64a28.408,28.408,0,0,1-4.162-.107,17.29,17.29,0,0,0-2.348.107c-1.6.107-3.095.213-4.909.32a89.592,89.592,0,0,0-12.913,1.494,15.537,15.537,0,0,1-3.308.427,29.488,29.488,0,0,0-5.656.64c-2.775.427-5.443.854-8.644,1.174a82.941,82.941,0,0,1-13.126.747c-3.308-.107-6.83.64-7.47,1.387-.427.747-2.134,1.174-3.949,1.708-2.561,0-4.909.107-7.043.107-3.949,0-7.9.213-11.739-.107a68.147,68.147,0,0,0-12.379-.107c-1.814.107-3.735,0-5.87,0a16.454,16.454,0,0,0-7.043-1.174,24.661,24.661,0,0,1-6.51-.854c-.961-.213-1.814-.427-2.775-.64a43.566,43.566,0,0,1-9.178,0c-.747,0-1.6-.107-2.348-.107a12,12,0,0,1-2.134-.213,44.139,44.139,0,0,0-7.47-.961,4.542,4.542,0,0,1-1.814-.427,27.567,27.567,0,0,0-2.775-.854,82.935,82.935,0,0,1-10.352-.213c-5.336-.213-10.779-.213-16.328-.32-5.336,0-10.779,0-15.9.427-.427,0-.747.107-1.174.107-3.949.107-7.9.427-11.526-.213-.747-.107-1.921-.107-2.988-.213a45.4,45.4,0,0,0-10.779.107c-4.269.64-9.071.107-13.553,0a7.065,7.065,0,0,1-1.921-.32,17.853,17.853,0,0,0-5.656-.534H462.52c-2.561-1.174-3.735-1.494-8.858-2.348q-2.4-.32-5.122-.64a49.821,49.821,0,0,0-8-.213c-3.308.107-6.723.213-9.818.427a25.355,25.355,0,0,0-4.162.32,20.187,20.187,0,0,1-8,.107c-1.281-.32-3.628-.32-3.842-.64-.96-.64-3.308-.747-5.122-.961-3.735-.64-7.684-.961-10.245-1.921A32.1,32.1,0,0,0,393.9,18.3a42.475,42.475,0,0,0-6.723-.961,32.221,32.221,0,0,1-8.217-1.281,34.339,34.339,0,0,1-3.522-.107c-1.174-.107-2.134-.32-3.308-.427a27.887,27.887,0,0,0-2.988,0c-.96-.107-1.6-.534-2.561-.64-1.814-.213-3.735-.427-5.656-.64-4.482-.32-9.178-.32-13.34-.747a90.873,90.873,0,0,0-15.261-.427H330.4c-5.443.32-11.205.213-16.328.854a64.761,64.761,0,0,1-11.526.534,65.938,65.938,0,0,0-10.352.534c-1.814.213-3.735.534-5.656.64a25.622,25.622,0,0,0-6.083.747,7.736,7.736,0,0,1-2.775.213,68.575,68.575,0,0,0-9.6.534,31.734,31.734,0,0,0-7.043,1.067c-2.775.961-6.83,1.067-11.419.854a24.584,24.584,0,0,1-6.51-1.067,13.841,13.841,0,0,0-3.735-.854c-1.174-.213-2.988-.32-3.735-.534a40.175,40.175,0,0,0-5.336-.747,126.377,126.377,0,0,0-14.514-.854c-7.684-.213-15.474-.534-22.945.32a20.165,20.165,0,0,1-5.656-.107c0-.747-1.921-1.067-4.162-1.494a59.189,59.189,0,0,0-6.51-1.067c-3.949-.64-7.257-1.387-11.739-1.921-5.656-.64-11.419-1.174-17.075-1.814-4.162-.427-8-.747-11.739-1.281-1.387-.213-3.095-.32-4.7-.427-2.775-.213-6.083-.213-8.431-.64a61.717,61.717,0,0,0-11.205-.747c-2.561,0-5.336-.32-7.9-.427-3.308-.854-8-.961-11.952-1.6a36.836,36.836,0,0,0-8.431-.213,86.179,86.179,0,0,1-11.739,0,15,15,0,0,0-3.095,0,43.606,43.606,0,0,1-13.34-.854c-.427-.107-.96-.107-1.6-.213-4.269-.64-9.6-.747-13.767-1.387-2.561.107-4.482,0-5.656-.64C33.937.368,32.55.368,31.8.262c-1.174,0-2.775,0-3.735-.107l-7.684-.32H0" transform="translate(0 0.165)" fill="#a9a4d1"/>
</svg>
