<svg xmlns="http://www.w3.org/2000/svg" width="1366" height="32.229" viewBox="0 0 1366 32.229">
  <path id="svgexport-21" d="M1366,32.016h-8.644c-6.083,0-39.486-11.632-39.913-11.419-2.348,1.281-18.782-.854-21.237-4.375,0,0-10.458-3.522-10.992-3.522-1.387,0-13.447,3.2-13.873,2.668-.747-.747-14.727-3.949-14.727-5.656-2.455,1.387-22.624-8.324-24.972-7.15-1.067-.854-2.348-1.6-3.522-2.561-1.921,2.028-3.522,3.628-5.016,5.229-2.881-.854-5.123-1.494-7.577-2.241a9.4,9.4,0,0,0-1.6.534c-4.269,1.387-5.656,1.067-7.791-1.387-1.814-2.241-5.656-2.348-8.644-.854-2.134,1.067-4.909,2.775-6.937,2.455-4.8-.747-6.4,1.174-8.644,2.775-1.6,1.174-3.308,2.241-4.909,3.308-1.921-.854-3.735-1.281-5.656-2.134a11.107,11.107,0,0,0-.854,2.134,4.783,4.783,0,0,1-1.281-.107V3.735c-2.134.854-3.735,1.281-5.123,1.921-1.387-.854-2.455-1.707-3.735-2.561-5.443,1.281-10.779,2.134-16.328.107a6.514,6.514,0,0,0-3.2-.107A15.321,15.321,0,0,0,1137.3,4.8c-1.281-.32-2.455-.854-4.055-1.174-1.814,1.174-3.2,3.095-6.937,1.707-.854-.32-2.455.107-3.735.32-4.269.854-8.324,1.494-12.7,2.134-1.6.213-3.2-.213-5.016-.32a28.121,28.121,0,0,0-2.988-.213c-6.4-.32-12.593,2.455-19,.107a3.92,3.92,0,0,0-1.921-.107c-4.055,1.708-8.858,1.281-13.34,1.387a9.079,9.079,0,0,0-3.308.96c-1.921.854-10.138,1.6-12.273,1.174-4.8-.854-8.644-.32-10.779,2.455-13.66-1.708-13.66-1.708-18.249.96-2.454-.427-6.4-1.708-7.577-1.174-5.016,2.561-7.47.213-10.458-1.494-5.336,1.174-11.526-.854-16.862,1.494-7.79-2.881-15.9-2.881-24.439-.213-5.336-3.949-10.245-4.055-14.727,0-.32-1.387-.747-2.668-1.067-4.055-3.522.854-6.51,1.174-9.178,1.921-2.881.747-6.4,2.455-8,2.028-4.482-1.387-5.656,1.921-9.6,1.494-1.067-.96-2.455-2.348-4.269-3.735-1.387.32-2.988.747-4.269,1.067-3.735,1.174-7.257,2.134-10.992,0a6.66,6.66,0,0,0-2.988-.107c-2.668.213-5.122.747-8,.96a22.311,22.311,0,0,0-2.455,3.095c-9.071-1.174-17.5-2.775-26.36-.427a4.072,4.072,0,0,1-1.814-.32c-2.455-1.281-3.949-.32-5.443.854-1.281.747-2.881,1.921-4.269,1.921-7.79.213-15.794-.427-23.585.32-3.2.32-7.257-.32-9.6.747-3.522,1.6-6.4.96-9.711.534a20.967,20.967,0,0,1-7.577-2.241c-2.134-1.067-4.589-.534-4.909,1.174-.32,1.6-1.921,2.455-3.949,2.241-3.522-.854-7.257-.32-10.672-1.921a23.7,23.7,0,0,0-17.4-.747c-1.814.747-3.522,1.067-5.336,1.708a6.144,6.144,0,0,1-1.6.107c-1.281-.747-2.455-1.281-3.735-2.028-2.134,1.921-4.909,1.921-7.577.96a22.784,22.784,0,0,0-9.391-.96c-2.881.32-5.87.534-8.858.747-2.134.107-4.8.854-6.19-.96-.213-.32-1.6-.427-2.348-.32-3.949.747-7.79,1.6-11.739,2.348-.213-.32-.534-.534-.534-.747a1.834,1.834,0,0,1-.213-.854,37.656,37.656,0,0,1-5.976,1.494c-1.921.213-5.016-.747-6.19-.107-4.055,2.028-8.644,1.281-13.126,2.028-2.348-2.668-2.348-2.668-6.19-.96a6.331,6.331,0,0,1-2.455.534c-3.2-.107-6.51-.213-9.711-.534-2.881-.32-5.976-.534-8.111-1.494a13.437,13.437,0,0,0-6.51-1.281c-4.909.213-9.925.32-14.834.534-4.589.213-9.178.427-15.261.854-1.814-.534-5.016-1.281-8-2.348a14.89,14.89,0,0,0-11.526.107c-1.814.747-4.8,1.708-5.87,1.281-3.522-1.494-1.814,1.387-3.2,1.174-1.921-.32-3.949-.96-5.443-.747-3.949.427-7.577-.213-11.526-.107-5.336.107-10.672,0-12.379,4.375-5.336-2.561-9.711-1.067-13.873.534a27.381,27.381,0,0,1-2.988-2.028c-1.814.534-3.2,1.387-4.482,1.174a41.6,41.6,0,0,1-7.79-1.921,12.944,12.944,0,0,1-3.2,1.174c-5.443.427-10.992.427-16.328.96-2.134.213-5.336-.534-7.043,1.174a5.663,5.663,0,0,1-3.522,0c-2.348-2.028-5.443-1.281-8.537-1.067-3.522.32-7.043.534-10.458-.747-1.6-.534-4.269-.854-5.656-.213-4.909,2.028-10.138,2.775-15.9,3.522-5.976.854-10.458-.534-14.834-2.348-1.814,1.067-3.522,1.708-5.87.427-5.122-3.2-10.779-2.241-16.648-.747-2.988-.854-5.87-3.522-10.245-1.281a38.706,38.706,0,0,0-17.5,1.067,3.621,3.621,0,0,1-2.455-.213,10.288,10.288,0,0,0-6.4-1.708c-1.281-2.668-4.269-.96-6.51-.854-2.668,0-5.443,1.067-7.577.534-2.668-.747-5.336-.427-7.79-.854-2.988-.427-6.4.854-9.6.854-5.656.32-10.672,1.494-14.834,3.842a6.739,6.739,0,0,1-2.668.96A78.217,78.217,0,0,1,324,25.079c-3.949-.32-7.79-.747-11.846-.107a8.717,8.717,0,0,1-3.522-.96c-2.668-1.067-5.122-2.028-8.644-1.174-2.348.427-4.482,0-4.055-1.921-2.455.107-5.336.854-7.577.32-2.134-.427-3.2-.96-4.8.534-.747.534-3.415.107-4.909.534-4.482.96-8.644,2.561-13.126,3.2-2.348.32-5.87.32-8-1.387-3.735-2.775-5.656-2.561-11.739-.96a29.029,29.029,0,0,1-4.589.96c-3.522.213-7.257.32-11.526.534-2.134-3.095-6.4-5.549-12.273-7.47V20.49c-4.8-4.055-11.526-3.2-17.182-4.7-4.8,1.921-9.6,3.628-15.581,5.87-5.336-1.067-10.245-3.308-16.328-1.281a7.205,7.205,0,0,1-4.269-.427c-3.415-2.028-8-2.028-11.739-3.415-4.482-1.708-9.391-3.095-14.194-4.482-1.281-.32-12.593,2.561-13.873,2.561-7.043,0-21.664,12.273-27.32,10.458-6.51-2.134-13.873.213-21.45-1.067-8.644,2.455-16.328,7.684-21.13,8.217H0M184.517,21.344Z" fill="#a9a4d1"/>
</svg>
