<svg id="cart_1" data-name="cart 1" xmlns="http://www.w3.org/2000/svg" width="21.603" height="20.443" viewBox="0 0 21.603 20.443">
  <g id="Group">
    <path id="Vector" d="M13.889,20.443a1.077,1.077,0,1,1,1.078-1.077A1.079,1.079,0,0,1,13.889,20.443Zm-3.008,0a1.077,1.077,0,1,1,1.078-1.077A1.079,1.079,0,0,1,10.882,20.443Zm7.482-3.16H7.561A3.242,3.242,0,0,1,6.2,11.1L3.516,2.16H1.08A1.08,1.08,0,1,1,1.08,0h3.24A1.073,1.073,0,0,1,5.354.77l.418,1.39h14.75a1.016,1.016,0,0,1,.244.029h.009a1.1,1.1,0,0,1,.281.111,1.058,1.058,0,0,1,.384.371,1.077,1.077,0,0,1,.159.511,1.019,1.019,0,0,1-.026.3l0,.009a1.025,1.025,0,0,1-.09.242l-4.314,8.629a1.075,1.075,0,0,1-.966.6H7.561a1.08,1.08,0,1,0,0,2.16h10.8a1.08,1.08,0,0,1,0,2.161ZM6.42,4.321h0L8.364,10.8h7.17l3.241-6.481H6.42Z" fill="#164734"/>
  </g>
</svg>
