<svg xmlns="http://www.w3.org/2000/svg" width="27.139" height="26.46" viewBox="0 0 27.139 26.46">
  <g id="Group_10258" data-name="Group 10258" transform="translate(0 -0.8)">
    <rect id="Rectangle_5229" data-name="Rectangle 5229" width="2.544" height="5.216" transform="translate(20.99 2.284)" fill="#627c89"/>
    <rect id="Rectangle_5230" data-name="Rectangle 5230" width="2.544" height="0.975" transform="translate(20.99 2.284)" fill="#9da6b1"/>
    <rect id="Rectangle_5231" data-name="Rectangle 5231" width="1.272" height="3.604" transform="translate(24.057 1.584) rotate(90)" fill="#445c6c"/>
    <g id="Group_10257" data-name="Group 10257" transform="translate(0 0.8)">
      <path id="Path_21327" data-name="Path 21327" d="M27.762,28.643H4.1V10.451L15.931,3.2l11.831,7.251Z" transform="translate(-2.361 -2.182)" fill="#fff"/>
      <path id="Path_21328" data-name="Path 21328" d="M13.145.927.466,8.73A.978.978,0,0,0,0,9.578H0a.989.989,0,0,0,1.484.848L13.569,2.963l12.085,7.421a.989.989,0,0,0,1.484-.848h0a1.031,1.031,0,0,0-.466-.848L13.993.927A.77.77,0,0,0,13.145.927Z" transform="translate(0 -0.8)" fill="#e95c60"/>
      <circle id="Ellipse_141" data-name="Ellipse 141" cx="5.64" cy="5.64" r="5.64" transform="translate(6.391 21.552) rotate(-70.659)" fill="#fcd66f"/>
      <path id="Path_21329" data-name="Path 21329" d="M25.261,41.623a4.961,4.961,0,1,1,4.961-4.961A4.968,4.968,0,0,1,25.261,41.623Z" transform="translate(-11.692 -18.597)" fill="#d89832"/>
      <path id="Path_21330" data-name="Path 21330" d="M26.24,41.981a4.24,4.24,0,1,1,4.24-4.24A4.253,4.253,0,0,1,26.24,41.981Z" transform="translate(-12.671 -19.634)" fill="#fcd66f"/>
      <g id="Group_10256" data-name="Group 10256" transform="translate(12.255 15.138)">
        <path id="Path_21331" data-name="Path 21331" d="M31.614,40.232a2.128,2.128,0,0,1-.085.509,2.33,2.33,0,0,1-.3.382.88.88,0,0,1-.424.254,2.1,2.1,0,0,1-.551.127l-.085.678v.042l-.042.042h-.382c-.042,0-.085,0-.085-.042a.042.042,0,0,1-.042-.042V42.1l.085-.636c-.085,0-.17-.042-.254-.042a.324.324,0,0,1-.212-.085c-.085-.042-.127-.042-.17-.085s-.085-.042-.127-.085-.042-.042-.042-.127v-.382a.156.156,0,0,1,.042-.127.042.042,0,0,1,.042-.042h.042a.156.156,0,0,1,.127.042.324.324,0,0,0,.212.085c.085,0,.17.085.3.085a1.307,1.307,0,0,0,.424.042.962.962,0,0,0,.551-.127.413.413,0,0,0,.17-.382.6.6,0,0,0-.085-.254.423.423,0,0,0-.212-.17,2.067,2.067,0,0,0-.3-.127c-.127-.042-.212-.085-.339-.127a1.27,1.27,0,0,1-.339-.17.761.761,0,0,1-.3-.212.923.923,0,0,1-.212-.339,1.309,1.309,0,0,1-.085-.466,1.255,1.255,0,0,1,.085-.424.923.923,0,0,1,.212-.339,1.48,1.48,0,0,1,.382-.254,1.79,1.79,0,0,1,.509-.127l.085-.636v-.042l.042-.042h.382c.042,0,.085,0,.085.042a.042.042,0,0,1,.042.042v.085l-.085.594a.255.255,0,0,1,.17.042c.085,0,.127.042.17.042a.321.321,0,0,1,.17.085.131.131,0,0,0,.085.042l.042.042a.131.131,0,0,0,.042.085v.466a.042.042,0,0,1-.042.042h-.042a.156.156,0,0,1-.127-.042c-.042-.042-.127-.042-.212-.085s-.17-.042-.254-.085a.457.457,0,0,1-.339.085.629.629,0,0,0-.3.042c-.085.042-.127.042-.212.085l-.127.127a.255.255,0,0,0-.042.17.6.6,0,0,0,.085.254.423.423,0,0,0,.212.17,2.067,2.067,0,0,0,.3.127c.127.042.212.085.339.127a1.27,1.27,0,0,1,.339.17.761.761,0,0,1,.3.212,1.289,1.289,0,0,1,.212.3A.706.706,0,0,1,31.614,40.232Z" transform="translate(-28.9 -36.5)" fill="#d89832"/>
      </g>
    </g>
  </g>
</svg>
