<svg id="noun_Glasses_179818" xmlns="http://www.w3.org/2000/svg" width="30.671" height="30.636" viewBox="0 0 30.671 30.636">
  <g id="Group_10185" data-name="Group 10185">
    <path id="Path_21297" data-name="Path 21297" d="M28.9,19.6c-4.954,0-9-5.345-9-11.863A14.455,14.455,0,0,1,21.595.826.685.685,0,0,1,22.181.5H35.609A.685.685,0,0,1,36.2.826,14.455,14.455,0,0,1,37.89,7.735C37.89,14.254,33.849,19.6,28.9,19.6ZM22.572,1.8A12.819,12.819,0,0,0,21.2,7.735c0,5.8,1.828,5.735,7.692,5.735,5.99.054,7.692.066,7.692-5.735A12.819,12.819,0,0,0,35.218,1.8Z" transform="translate(-7.222 -0.5)" fill="#164734"/>
    <path id="Path_21298" data-name="Path 21298" d="M33.352,37.843a.616.616,0,0,1-.652-.652V28.652a.652.652,0,1,1,1.3,0v8.539A.616.616,0,0,1,33.352,37.843Z" transform="translate(-11.679 -10.075)" fill="#164734"/>
    <path id="Path_21299" data-name="Path 21299" d="M37.655,45.272H21.75a.57.57,0,0,1-.587-.391.6.6,0,0,1,.13-.717A12.046,12.046,0,0,1,29.7,41.1a11.758,11.758,0,0,1,8.409,3.064.6.6,0,0,1,.13.717A.57.57,0,0,1,37.655,45.272Zm-14.014-1.3H35.765a12.527,12.527,0,0,0-12.124,0Z" transform="translate(-7.638 -14.636)" fill="#164734"/>
    <rect id="Rectangle_5216" data-name="Rectangle 5216" width="14.536" height="1.304" transform="translate(14.373 12.059)" fill="#164734"/>
    <path id="Path_21300" data-name="Path 21300" d="M10.847,45.1H1.134a.685.685,0,0,1-.587-.326.592.592,0,0,1,0-.652,6.246,6.246,0,0,1,5.41-3.52,6.171,6.171,0,0,1,5.41,3.52.592.592,0,0,1,0,.652A.516.516,0,0,1,10.847,45.1Zm-8.474-1.3h7.3a4.834,4.834,0,0,0-3.65-1.89A4.634,4.634,0,0,0,2.373,43.794Z" transform="translate(-0.45 -14.462)" fill="#164734"/>
    <path id="Path_21301" data-name="Path 21301" d="M6.319,18.686A4.867,4.867,0,0,1,1.3,14.058V1.152A.616.616,0,0,1,1.952.5h8.734a.616.616,0,0,1,.652.652V14.058A4.909,4.909,0,0,1,6.319,18.686ZM2.6,1.8V14.058a3.522,3.522,0,0,0,3.715,3.324,3.522,3.522,0,0,0,3.715-3.324V1.8Z" transform="translate(-0.746 -0.5)" fill="#164734"/>
    <path id="Path_21302" data-name="Path 21302" d="M8.652,36.829A.616.616,0,0,1,8,36.177V27.052a.652.652,0,0,1,1.3,0v9.06A.714.714,0,0,1,8.652,36.829Z" transform="translate(-3.079 -9.518)" fill="#164734"/>
    <path id="Path_21303" data-name="Path 21303" d="M8.668,22.7l-4.4-.215A4.283,4.283,0,0,1,1.6,18.649c0-2.429.261-4.049.652-4.049H10.53c.391,0,.652,1.619.652,4.049A5.393,5.393,0,0,1,8.668,22.7Z" transform="translate(-0.85 -5.409)" fill="#164734"/>
  </g>
</svg>
