<svg xmlns="http://www.w3.org/2000/svg" width="35.162" height="37.059" viewBox="0 0 35.162 37.059">
  <g id="noun_accessory_3518721" transform="translate(0 0)">
    <path id="Path_21304" data-name="Path 21304" d="M38.459,27.813a12.958,12.958,0,0,1-9.394,7.412,11.859,11.859,0,0,1-4.611,0,12.958,12.958,0,0,1-9.394-7.412l-1.594-3.577h-1.9l1.939,4.309a14.671,14.671,0,0,0,10.644,8.4c.345.043.646.086.948.129l-1.034,1.379a3.553,3.553,0,0,0-.388,3.577,3.4,3.4,0,0,0,2.715,2.025h.776a3.256,3.256,0,0,0,2.715-2.025,3.67,3.67,0,0,0-.388-3.577l-1.077-1.422c.345-.043.646-.086.948-.129A14.671,14.671,0,0,0,40.01,28.5l1.939-4.309h-1.9ZM28.289,41.344A1.685,1.685,0,0,1,27,42.335h-.431a1.49,1.49,0,0,1-1.293-.991,1.9,1.9,0,0,1,.215-1.853l1.336-1.767,1.336,1.767A1.889,1.889,0,0,1,28.289,41.344ZM44.362,22.513H9.2A5.179,5.179,0,0,1,14.285,18.2H39.278A5.145,5.145,0,0,1,44.362,22.513ZM37.6,16.48H15.965L19.2,8.12A1.711,1.711,0,0,1,20.792,7h3.016l2.327,2.327a.833.833,0,0,0,1.207,0L29.711,7h3.016a1.711,1.711,0,0,1,1.594,1.12Z" transform="translate(-9.2 -7)" fill="#164734"/>
  </g>
</svg>
