<svg id="noun_pottery_2239434" xmlns="http://www.w3.org/2000/svg" width="29.814" height="39.744" viewBox="0 0 29.814 39.744">
  <g id="Group_10186" data-name="Group 10186">
    <path id="Path_21306" data-name="Path 21306" d="M35.775,4H33.646V5.419H32.226V4H30.1V5.419H28.678V4H26.549V5.419H25.129V4H23V6.839H35.775Z" transform="translate(-14.48 -4)" fill="#164734"/>
    <circle id="Ellipse_131" data-name="Ellipse 131" cx="0.71" cy="0.71" r="0.71" transform="translate(7.81 24.13)" fill="#164734"/>
    <path id="Path_21307" data-name="Path 21307" d="M29.73,58.783a14.935,14.935,0,0,1-5.294-.935l-.255,1.527h11.1l-.253-1.512A15,15,0,0,1,29.73,58.783Z" transform="translate(-14.823 -19.631)" fill="#164734"/>
    <circle id="Ellipse_132" data-name="Ellipse 132" cx="0.71" cy="0.71" r="0.71" transform="translate(2.842 21.291)" fill="#164734"/>
    <circle id="Ellipse_133" data-name="Ellipse 133" cx="1.419" cy="1.419" r="1.419" transform="translate(13.488 22.001)" fill="#164734"/>
    <path id="Path_21308" data-name="Path 21308" d="M39.034,22.562c-.666-.226-1.438-.446-2.314-.688-.617-.171-1.262-.349-1.924-.549a4.4,4.4,0,0,1-3.336-5.016l.206-2.05H30.033V12.839H31.8L32.088,10H22.3l.284,2.839h3.19v1.419H22.723l.213,2.058A4.4,4.4,0,0,1,19.6,21.325c-.662.2-1.307.378-1.924.549-.84.232-1.581.444-2.227.66a101.644,101.644,0,0,0,23.588.028ZM27.195,12.839h1.419v1.419H27.195Z" transform="translate(-12.288 -5.742)" fill="#164734"/>
    <circle id="Ellipse_134" data-name="Ellipse 134" cx="0.71" cy="0.71" r="0.71" transform="translate(25.553 21.291)" fill="#164734"/>
    <path id="Path_21309" data-name="Path 21309" d="M14.43,45.554c.231.461.479.916.745,1.356a13.426,13.426,0,0,0,23.449,0c.26-.432.5-.876.729-1.328a95.809,95.809,0,0,1-12.071.766,105.361,105.361,0,0,1-12.852-.794Z" transform="translate(-11.993 -16.063)" fill="#164734"/>
    <path id="Path_21310" data-name="Path 21310" d="M39.976,29.284a94.785,94.785,0,0,1-13.683.965,105.935,105.935,0,0,1-14.45-.989A2.387,2.387,0,0,0,11,31.2a22.847,22.847,0,0,0,1.744,8.1,99.906,99.906,0,0,0,26.3.038A22.868,22.868,0,0,0,40.807,31.2a2.387,2.387,0,0,0-.83-1.92ZM14.547,35.463a2.129,2.129,0,1,1,2.129-2.129A2.129,2.129,0,0,1,14.547,35.463ZM19.515,38.3a2.129,2.129,0,1,1,2.129-2.129A2.129,2.129,0,0,1,19.515,38.3Zm6.387-.71a2.839,2.839,0,1,1,2.839-2.839A2.839,2.839,0,0,1,25.9,37.592Zm6.387.71a2.129,2.129,0,1,1,2.129-2.129A2.129,2.129,0,0,1,32.29,38.3Zm4.968-2.839a2.129,2.129,0,1,1,2.129-2.129A2.129,2.129,0,0,1,37.258,35.463Z" transform="translate(-10.996 -11.333)" fill="#164734"/>
    <circle id="Ellipse_135" data-name="Ellipse 135" cx="0.71" cy="0.71" r="0.71" transform="translate(20.585 24.13)" fill="#164734"/>
  </g>
</svg>
