<svg xmlns="http://www.w3.org/2000/svg" width="33.354" height="33.359" viewBox="0 0 33.354 33.359">
  <g id="noun_Incense_3683146" transform="translate(0 0)">
    <path id="Path_21311" data-name="Path 21311" d="M20.446,45.154V41.069l.083-.174A4.591,4.591,0,0,0,21,38.909V37.6a.557.557,0,0,0-.556-.556V22.041a.557.557,0,0,0-.556-.556h-.556V20.276a1.669,1.669,0,0,0,1.112-1.57v-.222a1.678,1.678,0,0,0-.278-.924l-.924-1.389a.552.552,0,0,0-.771-.153.534.534,0,0,0-.153.153l-.931,1.389a1.678,1.678,0,0,0-.278.924v.222a1.663,1.663,0,0,0,1.112,1.57v1.209h-.556a.557.557,0,0,0-.556.556V37.047a.557.557,0,0,0-.556.556v1.306a4.4,4.4,0,0,0,.472,1.987l.083.174v4.085l-.952.952a.551.551,0,0,0-.16.4v2.223a.557.557,0,0,0,.556.556H21a.557.557,0,0,0,.556-.556V46.5a.563.563,0,0,0-.16-.4Zm-2.223-26.67a.583.583,0,0,1,.09-.306l.465-.695.465.695a.542.542,0,0,1,.09.306v.222a.556.556,0,1,1-1.112,0Zm-.556,19.674H19.89v.75a3.28,3.28,0,0,1-.347,1.473H18.015a3.5,3.5,0,0,1-.347-1.473Zm2.779,10H17.112V46.724l.785-.785h1.765l.785.785Z" transform="translate(-16 -15.922)" fill="#164734"/>
    <path id="Path_21312" data-name="Path 21312" d="M421.491,46.1l-.952-.945V41.069l.083-.174a4.593,4.593,0,0,0,.472-1.987V37.6a.557.557,0,0,0-.556-.556V22.041a.557.557,0,0,0-.556-.556h-.556V20.276a1.669,1.669,0,0,0,1.111-1.57v-.222a1.678,1.678,0,0,0-.278-.924l-.924-1.389a.552.552,0,0,0-.771-.153.535.535,0,0,0-.153.153l-.924,1.389a1.678,1.678,0,0,0-.278.924v.222a1.662,1.662,0,0,0,1.112,1.57v1.209h-.556a.557.557,0,0,0-.556.556V37.047a.557.557,0,0,0-.556.556v1.306a4.4,4.4,0,0,0,.472,1.987l.083.174v4.085l-.952.952a.551.551,0,0,0-.16.4v2.223a.557.557,0,0,0,.556.556H421.1a.557.557,0,0,0,.556-.556V46.5A.6.6,0,0,0,421.491,46.1Zm-3.175-27.615a.583.583,0,0,1,.09-.306l.465-.695.466.695a.542.542,0,0,1,.09.306v.222a.556.556,0,0,1-1.112,0Zm-.556,19.674h2.223v.75a3.28,3.28,0,0,1-.347,1.473h-1.528a3.5,3.5,0,0,1-.347-1.473Zm2.779,10H417.2V46.724l.785-.785h1.765l.785.785Z" transform="translate(-388.304 -15.922)" fill="#164734"/>
    <path id="Path_21313" data-name="Path 21313" d="M128.352,35.285l.479-1.924a.553.553,0,0,0-.4-.674.428.428,0,0,0-.132-.014h-2.57L129.942,19.5l-1.056-.34-4.328,13.512h-1.181l2.14-16.041-1.1-.146-2.161,16.187h-1.181V16h-1.112V32.673h-1.181l-2.161-16.194-1.1.146,2.147,16.048h-1.181l-4.328-13.505-1.056.34,4.21,13.165h-2.57a.557.557,0,0,0-.556.556.768.768,0,0,0,.014.132l.479,1.924a8.348,8.348,0,0,0,0,11.449l-.479,1.924a.553.553,0,0,0,.4.674.428.428,0,0,0,.132.014h15.562a.557.557,0,0,0,.556-.556.767.767,0,0,0-.014-.132l-.479-1.924A8.369,8.369,0,0,0,128.352,35.285Zm-.764-1.5-.278,1.112H113.721l-.278-1.112Zm-1.1,9.768,1.007.479a8.224,8.224,0,0,1-.695,1.195l-.91-.639A7.685,7.685,0,0,0,126.49,43.553Zm-.973-3.654v.521a2.26,2.26,0,0,1-2.223,2.258,2.26,2.26,0,0,1-2.161,2.223h-.063a2.192,2.192,0,0,1-1.549-.632,2.642,2.642,0,0,1-.229-.257,1.662,1.662,0,0,1-2.661-1.251v-.042a1.6,1.6,0,0,0-1.077-1.48l-.764-.257a.556.556,0,0,1,.174-1.084h1.973a.249.249,0,0,0,.25-.25h0v-.021a1.4,1.4,0,0,1,1.389-1.4h.375a1.662,1.662,0,0,1,3.154.042v.007a2.236,2.236,0,0,1,1.744,2.174.557.557,0,0,0,.556-.556.556.556,0,1,1,1.112,0Zm-12.074,8.337.278-1.112H127.3l.278,1.112Zm14.506-5.4-1.063-.32a7.236,7.236,0,0,0,.132-3.613l1.084-.236A8.311,8.311,0,0,1,127.949,42.837Z" transform="translate(-103.842 -15.995)" fill="#164734"/>
    <path id="Path_21314" data-name="Path 21314" d="M212.441,338.25a1.115,1.115,0,0,0-1.112-1.112.557.557,0,0,1-.556-.556.556.556,0,1,0-1.112.007.558.558,0,0,1-.556.556h-.834a.253.253,0,0,0-.195.083.278.278,0,0,0-.083.2v.021a1.371,1.371,0,0,1-1.195,1.355,2.732,2.732,0,0,1,.639,1.688v.014a.568.568,0,0,0,.528.528.558.558,0,0,0,.584-.528v-.028a2.221,2.221,0,0,1,2.223-2.223v1.112a1.112,1.112,0,0,0,0,2.223h.028a1.155,1.155,0,0,0,1.084-1.146,1.082,1.082,0,0,1,1.077-1.077,1.073,1.073,0,0,0,.3-.042A1.122,1.122,0,0,1,212.441,338.25Z" transform="translate(-193.545 -313.79)" fill="#164734"/>
  </g>
</svg>
