<svg id="noun_pottery_2326900_1_" data-name="noun_pottery_2326900 (1)" xmlns="http://www.w3.org/2000/svg" width="33.798" height="34.53" viewBox="0 0 33.798 34.53">
  <path id="Path_21305" data-name="Path 21305" d="M12.458,19.283a2.315,2.315,0,0,0-.895.181,11.571,11.571,0,1,1,22.419-.06,2.324,2.324,0,0,0-1.743.107,9.922,9.922,0,1,0-18.977-.084A2.338,2.338,0,0,0,12.458,19.283Zm1.274,1.527a1.5,1.5,0,0,0-2.1-.458,1.541,1.541,0,0,0-.422,2.108l2.5,3.965-.686.447s-1.7-2.546-2.243-3.41a14.046,14.046,0,0,1-1.445-9.88,1.327,1.327,0,0,0-.856-1.526h0a1.312,1.312,0,0,0-.434-.074,1.329,1.329,0,0,0-1.271.958A22.15,22.15,0,0,0,11.16,32.992a2.376,2.376,0,0,1,.556,1.775l-.449,4.763,7.709-.091.582-4.479h0a5.089,5.089,0,0,0-.148-5.077c-.831-1.351-1.7-2.754-1.729-2.8Zm13.6,5.831,1.38-2.192a10.435,10.435,0,0,1-5.109,1.4h-.073A8.06,8.06,0,0,1,17.3,23a7.218,7.218,0,0,1,.879-10.17,5.643,5.643,0,0,1,7.942.687,4.377,4.377,0,0,1-.533,6.161,3.36,3.36,0,0,1-4.735-.41,2.551,2.551,0,0,1,.311-3.595,1.9,1.9,0,0,1,2.682.232,1.387,1.387,0,0,1-.169,1.952.972.972,0,0,1-1.369-.119.228.228,0,0,1-.05-.208.686.686,0,0,0-.044-1.36,1.183,1.183,0,0,0-1.155.679,1.593,1.593,0,0,0,.2,1.774,2.347,2.347,0,0,0,3.3.286,2.762,2.762,0,0,0,.336-3.887,3.277,3.277,0,0,0-4.617-.4,3.924,3.924,0,0,0-.478,5.529,4.739,4.739,0,0,0,6.669.577,5.752,5.752,0,0,0,.7-8.1,7.018,7.018,0,0,0-9.877-.854,8.605,8.605,0,0,0-2.8,8.7l3.877,6.157h0c.046.073.25.4.514.831a11.527,11.527,0,0,0,7.976-.085c.239-.386.419-.678.462-.746ZM26.148,34.96l.582,4.479,7.709.091-.449-4.763a2.375,2.375,0,0,1,.556-1.775,22.151,22.151,0,0,0,4.383-20.052,1.321,1.321,0,0,0-1.7-.884h0a1.327,1.327,0,0,0-.856,1.526,14.046,14.046,0,0,1-1.445,9.88c-.543.864-2.243,3.41-2.243,3.41l-.686-.447,2.5-3.965a1.54,1.54,0,0,0-.422-2.108,1.5,1.5,0,0,0-2.1.458l-3.947,6.27c-.032.049-.9,1.453-1.729,2.8A5.088,5.088,0,0,0,26.148,34.96Z" transform="translate(-5.954 -5)" fill="#164734"/>
</svg>
