<svg xmlns="http://www.w3.org/2000/svg" xmlns:xlink="http://www.w3.org/1999/xlink" width="1369" height="712" viewBox="0 0 1369 712">
  <defs>
    <clipPath id="clip-path">
      <rect id="vectorMask" width="1369" height="712" transform="translate(-0.141 0)" fill="none"/>
    </clipPath>
  </defs>
  <g id="cirlces" transform="translate(0.141 0)" clip-path="url(#clip-path)">
    <g id="cirlces-2" data-name="cirlces" transform="translate(488.282 57.476)">
      <circle id="Ellipse_5" data-name="Ellipse 5" cx="1.583" cy="1.583" r="1.583" transform="translate(41.051)" fill="#cbcbcb"/>
      <circle id="Ellipse_9" data-name="Ellipse 9" cx="1.583" cy="1.583" r="1.583" transform="translate(41.051 8.451)" fill="#cbcbcb"/>
      <circle id="Ellipse_13" data-name="Ellipse 13" cx="1.583" cy="1.583" r="1.583" transform="translate(41.051 16.91)" fill="#cbcbcb"/>
      <circle id="Ellipse_6" data-name="Ellipse 6" cx="1.583" cy="1.583" r="1.583" transform="translate(32.6)" fill="#cbcbcb"/>
      <circle id="Ellipse_10" data-name="Ellipse 10" cx="1.583" cy="1.583" r="1.583" transform="translate(32.6 8.451)" fill="#cbcbcb"/>
      <circle id="Ellipse_14" data-name="Ellipse 14" cx="1.583" cy="1.583" r="1.583" transform="translate(32.6 16.91)" fill="#cbcbcb"/>
      <circle id="Ellipse_7" data-name="Ellipse 7" cx="1.583" cy="1.583" r="1.583" transform="translate(24.141)" fill="#cbcbcb"/>
      <circle id="Ellipse_11" data-name="Ellipse 11" cx="1.583" cy="1.583" r="1.583" transform="translate(24.141 8.451)" fill="#cbcbcb"/>
      <circle id="Ellipse_15" data-name="Ellipse 15" cx="1.583" cy="1.583" r="1.583" transform="translate(24.141 16.91)" fill="#cbcbcb"/>
      <circle id="Ellipse_8" data-name="Ellipse 8" cx="1.583" cy="1.583" r="1.583" transform="translate(15.69)" fill="#cbcbcb"/>
      <circle id="Ellipse_17" data-name="Ellipse 17" cx="1.583" cy="1.583" r="1.583" transform="translate(7.845)" fill="#cbcbcb"/>
      <circle id="Ellipse_20" data-name="Ellipse 20" cx="1.583" cy="1.583" r="1.583" fill="#cbcbcb"/>
      <circle id="Ellipse_12" data-name="Ellipse 12" cx="1.583" cy="1.583" r="1.583" transform="translate(15.69 8.451)" fill="#cbcbcb"/>
      <circle id="Ellipse_18" data-name="Ellipse 18" cx="1.583" cy="1.583" r="1.583" transform="translate(7.845 8.451)" fill="#cbcbcb"/>
      <circle id="Ellipse_21" data-name="Ellipse 21" cx="1.583" cy="1.583" r="1.583" transform="translate(0 8.451)" fill="#cbcbcb"/>
      <circle id="Ellipse_16" data-name="Ellipse 16" cx="1.583" cy="1.583" r="1.583" transform="translate(15.69 16.91)" fill="#cbcbcb"/>
      <circle id="Ellipse_19" data-name="Ellipse 19" cx="1.583" cy="1.583" r="1.583" transform="translate(7.845 16.91)" fill="#cbcbcb"/>
      <circle id="Ellipse_22" data-name="Ellipse 22" cx="1.583" cy="1.583" r="1.583" transform="translate(0 16.91)" fill="#cbcbcb"/>
    </g>
  </g>
</svg>
