<svg xmlns="http://www.w3.org/2000/svg" width="26.596" height="26.596" viewBox="0 0 26.596 26.596">
  <path id="Path_21315" data-name="Path 21315" d="M28.118,5.955h-1.73a4.434,4.434,0,0,0-8.361,0H4.478a1.478,1.478,0,0,0,0,2.955h13.55a4.434,4.434,0,0,0,8.361,0h1.73a1.478,1.478,0,1,0,0-2.955ZM22.208,8.91A1.478,1.478,0,1,0,20.73,7.433,1.478,1.478,0,0,0,22.208,8.91ZM3,16.3A1.478,1.478,0,0,1,4.478,14.82h1.73a4.434,4.434,0,0,1,8.361,0h13.55a1.478,1.478,0,1,1,0,2.955H14.568a4.434,4.434,0,0,1-8.361,0H4.478A1.478,1.478,0,0,1,3,16.3Zm7.388,1.478A1.478,1.478,0,1,0,8.91,16.3,1.478,1.478,0,0,0,10.388,17.775Zm-5.91,5.91a1.478,1.478,0,0,0,0,2.955h13.55a4.434,4.434,0,0,0,8.361,0h1.73a1.478,1.478,0,1,0,0-2.955h-1.73a4.434,4.434,0,0,0-8.361,0Zm19.208,1.478a1.478,1.478,0,1,1-1.478-1.478A1.478,1.478,0,0,1,23.686,25.163Z" transform="translate(-3 -3)" fill="#164734" fill-rule="evenodd"/>
</svg>
