<svg xmlns="http://www.w3.org/2000/svg" width="14" height="14" viewBox="0 0 14 14">
  <path id="Path_21315" data-name="Path 21315" d="M16.222,4.556h-.911a2.334,2.334,0,0,0-4.4,0H3.778a.778.778,0,0,0,0,1.556h7.133a2.334,2.334,0,0,0,4.4,0h.911a.778.778,0,1,0,0-1.556ZM13.111,6.111a.778.778,0,1,0-.778-.778A.778.778,0,0,0,13.111,6.111ZM3,10a.778.778,0,0,1,.778-.778h.911a2.334,2.334,0,0,1,4.4,0h7.133a.778.778,0,1,1,0,1.556H9.089a2.334,2.334,0,0,1-4.4,0H3.778A.778.778,0,0,1,3,10Zm3.889.778A.778.778,0,1,0,6.111,10,.778.778,0,0,0,6.889,10.778ZM3.778,13.889a.778.778,0,0,0,0,1.556h7.133a2.334,2.334,0,0,0,4.4,0h.911a.778.778,0,1,0,0-1.556h-.911a2.334,2.334,0,0,0-4.4,0Zm10.111.778a.778.778,0,1,1-.778-.778A.778.778,0,0,1,13.889,14.667Z" transform="translate(-3 -3)" fill="#164734" fill-rule="evenodd"/>
</svg>
