<svg xmlns="http://www.w3.org/2000/svg" width="81" height="81" viewBox="0 0 81 81">
  <g id="Group_10261" data-name="Group 10261" transform="translate(-0.465 0)">
    <rect id="Rectangle_5029" data-name="Rectangle 5029" width="81" height="81" transform="translate(0.465 0)" fill="none"/>
    <g id="noun_Glasses_179818" transform="translate(15.559 14.999)">
      <g id="Group_10185" data-name="Group 10185">
        <path id="Path_21297" data-name="Path 21297" d="M35,32.559c-8.316,0-15.1-8.972-15.1-19.914a24.264,24.264,0,0,1,2.845-11.6A1.149,1.149,0,0,1,23.73.5h22.54a1.149,1.149,0,0,1,.985.547,24.264,24.264,0,0,1,2.845,11.6C50.1,23.587,43.315,32.559,35,32.559ZM24.386,2.688a21.518,21.518,0,0,0-2.3,9.957c0,9.738,3.069,9.627,12.911,9.627,10.055.09,12.911.111,12.911-9.627a21.518,21.518,0,0,0-2.3-9.957Z" transform="translate(1.381 -0.5)" fill="#f2f1f1"/>
        <path id="Path_21298" data-name="Path 21298" d="M33.794,44.522A1.034,1.034,0,0,1,32.7,43.428V29.094a1.094,1.094,0,1,1,2.188,0V43.428A1.034,1.034,0,0,1,33.794,44.522Z" transform="translate(2.586 2.089)" fill="#f2f1f1"/>
        <path id="Path_21299" data-name="Path 21299" d="M48.892,48.1h-26.7a.957.957,0,0,1-.985-.656,1,1,0,0,1,.219-1.2C24.6,43.069,29.854,41.1,35.543,41.1s10.942,1.86,14.115,5.143a1,1,0,0,1,.219,1.2A.957.957,0,0,1,48.892,48.1ZM25.368,45.914H45.719a20.073,20.073,0,0,0-10.176-2.626A20.073,20.073,0,0,0,25.368,45.914Z" transform="translate(1.494 3.323)" fill="#f2f1f1"/>
        <rect id="Rectangle_5216" data-name="Rectangle 5216" width="24.4" height="2.188" transform="translate(24.126 20.242)" fill="#f2f1f1"/>
        <path id="Path_21300" data-name="Path 21300" d="M17.9,48.15H1.6A1.149,1.149,0,0,1,.614,47.6a.994.994,0,0,1,0-1.094A10.485,10.485,0,0,1,9.7,40.6a10.358,10.358,0,0,1,9.081,5.908.994.994,0,0,1,0,1.094A.866.866,0,0,1,17.9,48.15ZM3.678,45.961H15.932a8.115,8.115,0,0,0-6.127-3.173A7.779,7.779,0,0,0,3.678,45.961Z" transform="translate(-0.45 3.276)" fill="#f2f1f1"/>
        <path id="Path_21301" data-name="Path 21301" d="M9.725,31.027c-4.6,0-8.425-3.5-8.425-7.768V1.594A1.034,1.034,0,0,1,2.394.5H17.056A1.034,1.034,0,0,1,18.15,1.594V23.258A8.241,8.241,0,0,1,9.725,31.027ZM3.488,2.688v20.57c0,3.064,2.735,5.58,6.237,5.58s6.237-2.517,6.237-5.58V2.688Z" transform="translate(-0.37 -0.5)" fill="#f2f1f1"/>
        <path id="Path_21302" data-name="Path 21302" d="M9.094,43.906A1.034,1.034,0,0,1,8,42.812V27.494A1.034,1.034,0,0,1,9.094,26.4a1.034,1.034,0,0,1,1.094,1.094V42.7A1.2,1.2,0,0,1,9.094,43.906Z" transform="translate(0.261 1.939)" fill="#f2f1f1"/>
        <path id="Path_21303" data-name="Path 21303" d="M13.464,28.192l-7.387-.361C5.42,27.831,1.6,25.474,1.6,21.4s.438-6.8,1.094-6.8h13.9c.656,0,1.094,2.718,1.094,6.8C17.684,24.794,14.12,28.192,13.464,28.192Z" transform="translate(-0.342 0.828)" fill="#f2f1f1"/>
      </g>
    </g>
  </g>
</svg>
