<svg xmlns="http://www.w3.org/2000/svg" width="70.645" height="70.645" viewBox="0 0 70.645 70.645">
  <g id="Group_10264" data-name="Group 10264" transform="translate(0 0)">
    <rect id="Rectangle_5029" data-name="Rectangle 5029" width="70.645" height="70.645" transform="translate(0 0)" fill="none"/>
    <g id="noun_pottery_2239434" transform="translate(10.302 3.199)">
      <g id="Group_10186" data-name="Group 10186">
        <path id="Path_21306" data-name="Path 21306" d="M44.444,4H40.87V6.383H38.487V4H34.913V6.383H32.531V4H28.957V6.383H26.574V4H23V8.765H44.444Z" transform="translate(-8.699 -4)" fill="#f2f1f1"/>
        <ellipse id="Ellipse_131" data-name="Ellipse 131" cx="1.191" cy="1.191" rx="1.191" ry="1.191" transform="translate(13.11 40.505)" fill="#f2f1f1"/>
        <path id="Path_21307" data-name="Path 21307" d="M33.5,59.418a25.07,25.07,0,0,1-8.886-1.57l-.429,2.564h18.63l-.425-2.539A25.174,25.174,0,0,1,33.5,59.418Z" transform="translate(-8.473 6.303)" fill="#f2f1f1"/>
        <ellipse id="Ellipse_132" data-name="Ellipse 132" cx="1.191" cy="1.191" rx="1.191" ry="1.191" transform="translate(4.77 35.74)" fill="#f2f1f1"/>
        <ellipse id="Ellipse_133" data-name="Ellipse 133" cx="2.383" cy="2.383" rx="2.383" ry="2.383" transform="translate(22.64 36.931)" fill="#f2f1f1"/>
        <path id="Path_21308" data-name="Path 21308" d="M55.041,31.086c-1.119-.38-2.414-.749-3.885-1.156-1.036-.287-2.118-.586-3.23-.922a7.393,7.393,0,0,1-5.6-8.42l.346-3.441h-2.74V14.765H42.9L43.381,10H26.953l.477,4.765h5.355v2.383H27.662l.357,3.455a7.386,7.386,0,0,1-5.605,8.407c-1.112.336-2.193.635-3.23.922-1.409.39-2.653.745-3.738,1.108a170.62,170.62,0,0,0,39.595.046ZM35.167,14.765H37.55v2.383H35.167Z" transform="translate(-10.144 -2.852)" fill="#f2f1f1"/>
        <ellipse id="Ellipse_134" data-name="Ellipse 134" cx="1.191" cy="1.191" rx="1.191" ry="1.191" transform="translate(42.893 35.74)" fill="#f2f1f1"/>
        <path id="Path_21309" data-name="Path 21309" d="M14.43,45.554c.388.774.8,1.537,1.251,2.277,3.193,5.272,9.2,11.556,19.681,11.556S51.85,53.1,55.042,47.831c.437-.724.842-1.471,1.223-2.229A160.825,160.825,0,0,1,36,46.887,176.858,176.858,0,0,1,14.43,45.554Z" transform="translate(-10.339 3.95)" fill="#f2f1f1"/>
        <path id="Path_21310" data-name="Path 21310" d="M59.643,29.3a159.107,159.107,0,0,1-22.969,1.62,177.823,177.823,0,0,1-24.255-1.66A4.006,4.006,0,0,0,11,32.524a38.352,38.352,0,0,0,2.928,13.6,167.7,167.7,0,0,0,44.154.064,38.386,38.386,0,0,0,2.953-13.66A4.006,4.006,0,0,0,59.643,29.3ZM16.957,39.672A3.574,3.574,0,1,1,20.531,36.1,3.574,3.574,0,0,1,16.957,39.672ZM25.3,44.437a3.574,3.574,0,1,1,3.574-3.574A3.574,3.574,0,0,1,25.3,44.437Zm10.722-1.191a4.765,4.765,0,1,1,4.765-4.765A4.765,4.765,0,0,1,36.019,43.246Zm10.722,1.191a3.574,3.574,0,1,1,3.574-3.574A3.574,3.574,0,0,1,46.741,44.437Zm8.339-4.765A3.574,3.574,0,1,1,58.654,36.1,3.574,3.574,0,0,1,55.08,39.672Z" transform="translate(-10.996 0.833)" fill="#f2f1f1"/>
        <ellipse id="Ellipse_135" data-name="Ellipse 135" cx="1.191" cy="1.191" rx="1.191" ry="1.191" transform="translate(34.554 40.505)" fill="#f2f1f1"/>
      </g>
    </g>
  </g>
</svg>
