<svg xmlns="http://www.w3.org/2000/svg" width="68.255" height="68.255" viewBox="0 0 68.255 68.255">
  <g id="Group_10267" data-name="Group 10267" transform="translate(0)">
    <rect id="Rectangle_5029" data-name="Rectangle 5029" width="68.255" height="68.255" transform="translate(0)" fill="none"/>
    <g id="noun_pottery_2326900_1_" data-name="noun_pottery_2326900 (1)" transform="translate(5.762 5.145)">
      <path id="Path_21305" data-name="Path 21305" d="M16.873,28.975a3.887,3.887,0,0,0-1.5.3A19.424,19.424,0,1,1,53,29.178a3.9,3.9,0,0,0-2.925.179,16.655,16.655,0,1,0-31.854-.142A3.924,3.924,0,0,0,16.873,28.975Zm2.139,2.563a2.524,2.524,0,0,0-3.517-.77,2.586,2.586,0,0,0-.709,3.538l4.191,6.656-1.151.75s-2.853-4.274-3.766-5.724c-2.584-4.108-3.674-10.432-2.425-16.585A2.228,2.228,0,0,0,10.2,16.843h0a2.2,2.2,0,0,0-.728-.124,2.231,2.231,0,0,0-2.134,1.607C3.373,31.8,8.587,44.9,14.693,51.987a3.988,3.988,0,0,1,.934,2.98l-.754,8,12.94-.153.976-7.519h0a8.542,8.542,0,0,0-.249-8.522c-1.4-2.267-2.849-4.622-2.9-4.705Zm22.822,9.789,2.317-3.679a17.517,17.517,0,0,1-8.575,2.343h-.122A13.529,13.529,0,0,1,25,35.214a12.116,12.116,0,0,1,1.476-17.071A9.473,9.473,0,0,1,39.811,19.3a7.348,7.348,0,0,1-.895,10.341,5.641,5.641,0,0,1-7.948-.688,4.282,4.282,0,0,1,.522-6.034,3.2,3.2,0,0,1,4.5.389,2.329,2.329,0,0,1-.283,3.277,1.632,1.632,0,0,1-2.3-.2.384.384,0,0,1-.084-.35,1.152,1.152,0,0,0-.074-2.284,1.986,1.986,0,0,0-1.939,1.139,2.673,2.673,0,0,0,.333,2.977,3.94,3.94,0,0,0,5.544.48,4.636,4.636,0,0,0,.564-6.525,5.5,5.5,0,0,0-7.75-.67,6.586,6.586,0,0,0-.8,9.281,7.955,7.955,0,0,0,11.2.969,9.655,9.655,0,0,0,1.175-13.588A11.781,11.781,0,0,0,25,16.379,14.444,14.444,0,0,0,20.3,30.991l6.507,10.336h0c.077.122.42.676.863,1.395a19.35,19.35,0,0,0,13.388-.143c.4-.649.7-1.139.775-1.252ZM39.851,55.291l.976,7.519,12.94.153-.754-8a3.987,3.987,0,0,1,.934-2.98C60.053,44.9,65.268,31.8,61.3,18.327a2.217,2.217,0,0,0-2.861-1.484h0A2.228,2.228,0,0,0,57.006,19.4c1.249,6.153.159,12.477-2.425,16.585-.912,1.45-3.766,5.724-3.766,5.724l-1.151-.75,4.191-6.656a2.586,2.586,0,0,0-.709-3.538,2.524,2.524,0,0,0-3.517.77L43,42.064c-.054.083-1.507,2.438-2.9,4.705A8.541,8.541,0,0,0,39.851,55.291Z" transform="translate(-5.954 -5)" fill="#f2f1f1"/>
    </g>
  </g>
</svg>
