<svg xmlns="http://www.w3.org/2000/svg" width="68.534" height="68.534" viewBox="0 0 68.534 68.534">
  <g id="Group_10262" data-name="Group 10262" transform="translate(0)">
    <rect id="Rectangle_5029" data-name="Rectangle 5029" width="68.534" height="68.534" transform="translate(0)" fill="none"/>
    <g id="noun_accessory_3518721" transform="translate(4.755 3.056)">
      <path id="Path_21304" data-name="Path 21304" d="M58.314,41.937A21.751,21.751,0,0,1,42.546,54.378a19.907,19.907,0,0,1-7.74,0A21.751,21.751,0,0,1,19.037,41.937l-2.676-6H13.178l3.255,7.233A24.626,24.626,0,0,0,34.3,57.271c.579.072,1.085.145,1.591.217L34.155,59.8a5.964,5.964,0,0,0-.651,6,5.7,5.7,0,0,0,4.557,3.4h1.3a5.465,5.465,0,0,0,4.557-3.4,6.16,6.16,0,0,0-.651-6l-1.808-2.387c.579-.072,1.085-.145,1.591-.217a24.626,24.626,0,0,0,17.866-14.1l3.255-7.233H60.99ZM41.244,64.649a2.828,2.828,0,0,1-2.17,1.664H38.35a2.5,2.5,0,0,1-2.17-1.664,3.191,3.191,0,0,1,.362-3.11l2.242-2.966,2.242,2.966A3.17,3.17,0,0,1,41.244,64.649Zm26.98-31.61H9.2a8.694,8.694,0,0,1,8.535-7.233H59.688A8.637,8.637,0,0,1,68.224,33.04ZM56.867,22.913H20.556L25.981,8.881A2.872,2.872,0,0,1,28.658,7h5.063l3.906,3.906a1.4,1.4,0,0,0,2.025,0L43.631,7h5.063A2.872,2.872,0,0,1,51.37,8.881Z" transform="translate(-9.2 -7)" fill="#f2f1f1"/>
    </g>
  </g>
</svg>
