<svg xmlns="http://www.w3.org/2000/svg" width="63.358" height="63.358" viewBox="0 0 63.358 63.358">
  <g id="Group_10266" data-name="Group 10266" transform="translate(0 0)">
    <rect id="Rectangle_5029" data-name="Rectangle 5029" width="63.358" height="63.358" transform="translate(0 0)" fill="none"/>
    <g id="noun_Incense_3683146" transform="translate(5.975 3.878)">
      <path id="Path_21311" data-name="Path 21311" d="M23.463,64.991V58.134l.14-.292a7.706,7.706,0,0,0,.793-3.335V52.315a.936.936,0,0,0-.933-.933V26.193a.936.936,0,0,0-.933-.933H21.6V23.231A2.8,2.8,0,0,0,23.463,20.6v-.373A2.816,2.816,0,0,0,23,18.671l-1.551-2.332a.926.926,0,0,0-1.294-.257.9.9,0,0,0-.257.257l-1.563,2.332a2.816,2.816,0,0,0-.466,1.551V20.6a2.791,2.791,0,0,0,1.866,2.636V25.26H18.8a.936.936,0,0,0-.933.933V51.382a.936.936,0,0,0-.933.933v2.192a7.389,7.389,0,0,0,.793,3.335l.14.292v6.857l-1.6,1.6a.925.925,0,0,0-.268.665v3.732a.936.936,0,0,0,.933.933H24.4a.936.936,0,0,0,.933-.933V67.253a.944.944,0,0,0-.268-.665ZM19.732,20.222a.979.979,0,0,1,.152-.513l.781-1.166.781,1.166a.91.91,0,0,1,.152.513V20.6a.933.933,0,1,1-1.866,0ZM18.8,53.248H22.53v1.259a5.506,5.506,0,0,1-.583,2.472H19.382a5.873,5.873,0,0,1-.583-2.472Zm4.665,16.793h-5.6V67.627l1.318-1.318h2.962l1.318,1.318Z" transform="translate(-16 -15.922)" fill="#f2f1f1"/>
      <path id="Path_21312" data-name="Path 21312" d="M425.149,66.577l-1.6-1.586V58.134l.14-.292a7.709,7.709,0,0,0,.793-3.335V52.315a.936.936,0,0,0-.933-.933V26.193a.936.936,0,0,0-.933-.933h-.933V23.231a2.8,2.8,0,0,0,1.866-2.636v-.373a2.816,2.816,0,0,0-.466-1.551l-1.551-2.332a.927.927,0,0,0-1.295-.257.9.9,0,0,0-.256.257l-1.551,2.332a2.816,2.816,0,0,0-.466,1.551V20.6a2.79,2.79,0,0,0,1.866,2.636V25.26H418.9a.936.936,0,0,0-.933.933V51.382a.936.936,0,0,0-.933.933v2.192a7.387,7.387,0,0,0,.793,3.335l.14.292v6.857l-1.6,1.6a.925.925,0,0,0-.268.665v3.732a.936.936,0,0,0,.933.933H424.5a.936.936,0,0,0,.933-.933V67.253A1.015,1.015,0,0,0,425.149,66.577ZM419.82,20.222a.979.979,0,0,1,.152-.513l.781-1.166.781,1.166a.91.91,0,0,1,.152.513V20.6a.933.933,0,0,1-1.866,0Zm-.933,33.026h3.732v1.259a5.506,5.506,0,0,1-.583,2.472H419.47a5.876,5.876,0,0,1-.583-2.472Zm4.665,16.793h-5.6V67.627l1.318-1.318h2.962l1.318,1.318Z" transform="translate(-369.442 -15.922)" fill="#f2f1f1"/>
      <path id="Path_21313" data-name="Path 21313" d="M140.534,48.372l.8-3.23a.928.928,0,0,0-.676-1.131.718.718,0,0,0-.222-.023h-4.315l7.079-22.11-1.773-.571-7.265,22.682h-1.982l3.592-26.927-1.854-.245-3.627,27.171h-1.982V16h-1.866V43.988h-1.982L120.837,16.8l-1.854.245,3.6,26.938H120.6l-7.265-22.67-1.773.571,7.067,22.1h-4.315a.936.936,0,0,0-.933.933,1.29,1.29,0,0,0,.023.222l.8,3.23a14.014,14.014,0,0,0,0,19.218l-.8,3.23a.928.928,0,0,0,.676,1.131.718.718,0,0,0,.222.023h26.122a.936.936,0,0,0,.933-.933,1.287,1.287,0,0,0-.023-.222l-.8-3.23A14.049,14.049,0,0,0,140.534,48.372Zm-1.283-2.519-.466,1.866h-22.81l-.466-1.866Zm-1.843,16.4,1.691.8a13.8,13.8,0,0,1-1.166,2.006l-1.528-1.073A12.9,12.9,0,0,0,137.408,62.25Zm-1.633-6.134v.875a3.793,3.793,0,0,1-3.732,3.79,3.794,3.794,0,0,1-3.627,3.732h-.1a3.68,3.68,0,0,1-2.6-1.061,4.437,4.437,0,0,1-.385-.431,2.789,2.789,0,0,1-4.466-2.1v-.07a2.677,2.677,0,0,0-1.808-2.484l-1.283-.431a.933.933,0,0,1,.292-1.819h3.312a.418.418,0,0,0,.42-.42h0v-.035a2.342,2.342,0,0,1,2.332-2.344h.63a2.79,2.79,0,0,1,5.294.07V53.4a3.753,3.753,0,0,1,2.927,3.65.936.936,0,0,0,.933-.933.933.933,0,1,1,1.866,0ZM115.508,70.11l.466-1.866h22.8l.466,1.866Zm24.349-9.061-1.784-.536a12.146,12.146,0,0,0,.222-6.064l1.819-.4A13.95,13.95,0,0,1,139.857,61.049Z" transform="translate(-99.391 -15.991)" fill="#f2f1f1"/>
      <path id="Path_21314" data-name="Path 21314" d="M216.269,339.757a1.871,1.871,0,0,0-1.866-1.866.936.936,0,0,1-.933-.933.933.933,0,1,0-1.866.012.936.936,0,0,1-.933.933h-1.4a.424.424,0,0,0-.326.14.467.467,0,0,0-.14.338v.035a2.3,2.3,0,0,1-2.006,2.274,4.586,4.586,0,0,1,1.073,2.834v.023a.953.953,0,0,0,.886.886.937.937,0,0,0,.98-.886V343.5a3.728,3.728,0,0,1,3.732-3.732v1.866a1.866,1.866,0,0,0,0,3.732h.047a1.939,1.939,0,0,0,1.819-1.924,1.817,1.817,0,0,1,1.808-1.808,1.8,1.8,0,0,0,.5-.07A1.883,1.883,0,0,1,216.269,339.757Z" transform="translate(-184.55 -298.699)" fill="#f2f1f1"/>
    </g>
  </g>
</svg>
