<svg xmlns="http://www.w3.org/2000/svg" width="12.522" height="12.521" viewBox="0 0 12.522 12.521">
  <path id="Vector" d="M6.26,12.521c-1.108,0-2.1-.017-2.583-.043a3.717,3.717,0,0,1-2.623-1.013A3.685,3.685,0,0,1,.043,8.842C-.014,7.8-.014,4.713.043,3.675A3.778,3.778,0,0,1,1.055,1.053,3.7,3.7,0,0,1,3.677.042C4.151.016,5.14,0,6.26,0S8.369.016,8.843.042a3.709,3.709,0,0,1,2.624,1.012,3.688,3.688,0,0,1,1.011,2.624c.058,1.038.058,4.126,0,5.164a3.711,3.711,0,0,1-1.011,2.623,3.684,3.684,0,0,1-2.624,1.013C8.357,12.5,7.368,12.521,6.26,12.521Zm0-1.128.448,0c.208,0,.433,0,.664,0a8.832,8.832,0,0,0,2.581-.258,2.115,2.115,0,0,0,1.189-1.191A11.279,11.279,0,0,0,11.4,6.706c0-.166,0-.316,0-.446s0-.28,0-.445a11.288,11.288,0,0,0-.254-3.245,2.113,2.113,0,0,0-1.189-1.19,8.934,8.934,0,0,0-2.6-.259c-.227,0-.447,0-.651,0H6.654l-.392,0-.445,0H5.638c-.151,0-.313,0-.479,0a8.831,8.831,0,0,0-2.587.259,2.11,2.11,0,0,0-1.189,1.19,11.361,11.361,0,0,0-.254,3.25c0,.163,0,.312,0,.439s0,.28,0,.446v.005a11.209,11.209,0,0,0,.255,3.24,2.1,2.1,0,0,0,1.189,1.191,9,9,0,0,0,2.61.258c.224,0,.442,0,.644,0h.047Zm0-1.923A3.209,3.209,0,1,1,9.47,6.259,3.214,3.214,0,0,1,6.262,9.469Zm0-5.3A2.088,2.088,0,1,0,8.348,6.259,2.089,2.089,0,0,0,6.262,4.173ZM9.6,3.662a.746.746,0,1,1,.747-.745A.747.747,0,0,1,9.6,3.662Z" fill="#fd3e77"/>
</svg>
