<svg xmlns="http://www.w3.org/2000/svg" width="13.661" height="13.091" viewBox="0 0 13.661 13.091">
  <path id="Vector" d="M12.685,13.091H.973A.96.96,0,0,1,0,12.147V.944A.96.96,0,0,1,.973,0H12.685a.962.962,0,0,1,.976.944v11.2A.961.961,0,0,1,12.685,13.091ZM8.641,6.525c1.053,0,1.053.958,1.053,1.656v3.039h2.024V7.8c0-1.547-.294-2.978-2.431-2.978A2.159,2.159,0,0,0,7.371,5.827H7.343V4.973H5.4v6.248H7.425V8.129C7.425,7.336,7.57,6.525,8.641,6.525ZM2.1,4.973v6.248H4.129l0-6.248Zm1.013-3.1A1.153,1.153,0,0,0,1.943,3,1.152,1.152,0,0,0,3.117,4.121,1.151,1.151,0,0,0,4.29,3,1.152,1.152,0,0,0,3.117,1.87Z" fill="#286fa3"/>
</svg>
