<svg xmlns="http://www.w3.org/2000/svg" width="12.261" height="15.94" viewBox="0 0 12.261 15.94">
  <path id="Icon_ionic-ios-lock" data-name="Icon ionic-ios-lock" d="M17.479,8.892h-.92V7.1A3.679,3.679,0,1,0,9.2,7.053V8.892h-.92A1.537,1.537,0,0,0,6.75,10.425v7.357a1.537,1.537,0,0,0,1.533,1.533h9.2a1.537,1.537,0,0,0,1.533-1.533V10.425A1.537,1.537,0,0,0,17.479,8.892Zm-4.062,4.782V16.31a.549.549,0,0,1-.51.552.537.537,0,0,1-.563-.536V13.674a1.226,1.226,0,1,1,1.073,0Zm2.069-4.782H10.275V7.053a2.606,2.606,0,0,1,5.211,0Z" transform="translate(-6.75 -3.374)" fill="#164734"/>
</svg>
