<svg id="love_1" data-name="love 1" xmlns="http://www.w3.org/2000/svg" width="18.745" height="17.52" viewBox="0 0 18.745 17.52">
  <path id="Vector" d="M9.372,17.52a.93.93,0,0,1-.628-.244C8.677,17.215,2.069,11.185.683,8.09c-1.125-2.508-.848-4.953.74-6.54a5.294,5.294,0,0,1,7.487,0l.463.463.464-.463a5.294,5.294,0,0,1,7.487,0c1.588,1.587,1.864,4.031.74,6.539-1.38,3.081-7.994,9.125-8.061,9.186A.932.932,0,0,1,9.372,17.52ZM5.166,1.865a3.45,3.45,0,0,0-2.424,1C1.275,4.336,2,6.476,2.385,7.327c1.039,2.318,6,7.06,6.988,7.987.983-.925,5.945-5.659,6.988-7.987.381-.851,1.11-2.99-.358-4.457a3.513,3.513,0,0,0-4.848,0L10.032,3.992a.934.934,0,0,1-1.32,0L7.591,2.87A3.407,3.407,0,0,0,5.166,1.865Z" fill="#164734"/>
</svg>
