<svg xmlns="http://www.w3.org/2000/svg" width="20.374" height="13.224" viewBox="0 0 20.374 13.224">
  <g id="Group_10328" data-name="Group 10328" transform="translate(1 1)">
    <path id="Path_20885" data-name="Path 20885" d="M1.449,0H16.925a1.449,1.449,0,0,1,1.449,1.449v9.327a1.449,1.449,0,0,1-1.449,1.449H1.449A1.449,1.449,0,0,1,0,10.776V1.449A1.449,1.449,0,0,1,1.449,0Z" transform="translate(0)" fill="#a9a4d1"/>
    <path id="Path_20879" data-name="Path 20879" d="M425.661,114.12h-4.9a1.2,1.2,0,0,1,1.206,1.206v9.813a1.2,1.2,0,0,1-1.206,1.206h4.9a1.2,1.2,0,0,0,1.206-1.206v-9.813a1.2,1.2,0,0,0-1.206-1.206Z" transform="translate(-408.493 -114.12)" opacity="0.13"/>
    <g id="Path_20881" data-name="Path 20881" transform="translate(-345.68 -114.12)" fill="#a9a4d1">
      <path d="M 354.8678283691406 122.1061325073242 C 354.5222473144531 122.1061325073242 354.1864013671875 122.036018371582 353.8696594238281 121.8977508544922 L 345.48046875 118.2463760375977 L 345.1799926757813 118.1156005859375 L 345.1799926757813 117.7879180908203 L 345.1799926757813 115.3257369995117 C 345.1799926757813 114.8696899414063 345.3577270507813 114.441047668457 345.6804504394531 114.118766784668 C 346.0025634765625 113.797119140625 346.4306030273438 113.619987487793 346.8857727050781 113.619987487793 L 362.8482055664063 113.619987487793 C 363.3049926757813 113.619987487793 363.73291015625 113.7972259521484 364.0548095703125 114.1190719604492 C 364.3773193359375 114.4416198730469 364.5545654296875 114.8703765869141 364.553955078125 115.3264083862305 L 364.553955078125 117.7879180908203 L 364.553955078125 118.1155776977539 L 364.2535400390625 118.2463607788086 L 355.865478515625 121.89794921875 C 355.5492248535156 122.036018371582 355.2134094238281 122.1061325073242 354.8678283691406 122.1061325073242 Z" stroke="none"/>
      <path d="M 362.849853515625 114.119987487793 C 362.8493041992188 114.119987487793 362.8487548828125 114.119987487793 362.8482055664063 114.119987487793 L 346.8873901367188 114.119987487793 C 346.8868408203125 114.119987487793 346.8863220214844 114.119987487793 346.8857727050781 114.119987487793 C 346.5662841796875 114.1199951171875 346.2598571777344 114.2467880249023 346.0337524414063 114.4725570678711 C 345.8072814941406 114.6987380981445 345.6799926757813 115.0056762695313 345.6799926757813 115.3257369995117 L 345.6799926757813 117.7879180908203 L 354.0697021484375 121.4395065307617 C 354.3241577148438 121.5505905151367 354.5960083007813 121.6061325073242 354.8678283691406 121.6061325073242 C 355.1396484375 121.6061325073242 355.4114685058594 121.5505905151367 355.6658935546875 121.4395065307617 L 364.053955078125 117.7879180908203 L 364.053955078125 115.3257369995117 C 364.0543823242188 115.0058212280273 363.927490234375 114.6988830566406 363.7012939453125 114.47265625 C 363.4754333496094 114.2468338012695 363.1691589355469 114.119987487793 362.849853515625 114.119987487793 M 346.8857727050781 113.119987487793 L 346.8873901367188 113.119987487793 L 362.8482055664063 113.119987487793 C 363.4385070800781 113.119987487793 363.9919738769531 113.3492279052734 364.4083251953125 113.7654724121094 C 364.8255004882813 114.1826934814453 365.0547180175781 114.7372207641602 365.053955078125 115.3270492553711 L 365.053955078125 117.7879180908203 L 365.053955078125 118.4432373046875 L 364.4530944824219 118.7048110961914 L 356.0650329589844 122.3563995361328 C 355.6858215332031 122.52197265625 355.2826843261719 122.6061325073242 354.8678283691406 122.6061325073242 C 354.4529724121094 122.6061325073242 354.0498352050781 122.52197265625 353.6696166992188 122.3559875488281 L 345.2809143066406 118.7048263549805 L 344.6799926757813 118.4432907104492 L 344.6799926757813 117.7879180908203 L 344.6799926757813 115.3257369995117 C 344.6799926757813 114.7360382080078 344.9097900390625 114.1817626953125 345.3270874023438 113.7649993896484 C 345.7437133789063 113.3490295410156 346.2972412109375 113.119987487793 346.8857727050781 113.119987487793 Z" stroke="none" fill="#fff"/>
    </g>
    <path id="Path_20882" data-name="Path 20882" d="M421.966,115.326v4.6l4.9-2.134v-2.462a1.2,1.2,0,0,0-.206-.675c-.021-.031-.044-.062-.069-.091a1.207,1.207,0,0,0-.931-.439h-4.9a1.2,1.2,0,0,1,1.206,1.206Z" transform="translate(-408.493 -114.12)" fill="#1c1c1c" opacity="0.15"/>
  </g>
</svg>
