<svg xmlns="http://www.w3.org/2000/svg" width="97" height="97" viewBox="0 0 97 97">
  <g id="Group_10299" data-name="Group 10299" transform="translate(-97.971 -33)">
    <g id="Rectangle_14" data-name="Rectangle 14" transform="translate(97.971 33)" fill="none" stroke="#a9a4d1" stroke-width="1" stroke-dasharray="4 8">
      <rect width="97" height="97" rx="6" stroke="none"/>
      <rect x="0.5" y="0.5" width="96" height="96" rx="5.5" fill="none"/>
    </g>
    <g id="quill_1" data-name="quill 1" transform="translate(117.783 52.476)">
      <g id="Group">
        <g id="Group-2" data-name="Group">
          <path id="Vector" d="M5.046,58.688H0L9.744,46.725a138.116,138.116,0,0,1,4.347-15.752,50.83,50.83,0,0,1,7.717-14.507,38.261,38.261,0,0,1,6.008-6.1,40.21,40.21,0,0,1,7.913-4.96A51.582,51.582,0,0,1,45.9,1.859,75.989,75.989,0,0,1,58.689,0c.7,6.765.1,12.676-1.773,17.57a17.548,17.548,0,0,1-4.875,7.416,5.77,5.77,0,0,0-1.3-.121c-4.552,0-14.513,3.018-14.613,3.049l8.47,4.6,0,.006A49.892,49.892,0,0,1,36.72,38.3a73.9,73.9,0,0,1-9.684,4.969A81.021,81.021,0,0,1,13.669,47.6ZM52.958,5.044C32.966,14,17.341,38.493,14.411,43.312l.239.121C19.163,38.182,42.222,11.65,52.958,5.044Z" fill="#a9a4d1"/>
        </g>
      </g>
    </g>
  </g>
</svg>
