<svg id="icon" xmlns="http://www.w3.org/2000/svg" width="42" height="43" viewBox="0 0 42 43">
  <rect id="background" width="42" height="43" rx="14" transform="translate(0 0)" fill="#a9a4d1" opacity="0.17"/>
  <g id="star_1_1" data-name="star (1) 1" transform="translate(13.983 14.295)">
    <g id="Layer_47" data-name="Layer 47">
      <path id="Vector" d="M1569.8,2471.831a1.508,1.508,0,0,0,.348-1.544,1.487,1.487,0,0,0-1.2-1.018l-3.053-.469a.1.1,0,0,1-.038-.021.1.1,0,0,1-.026-.036l-1.338-2.846a1.5,1.5,0,0,0-2.739-.021l-1.338,2.846a.1.1,0,0,1-.029.036.11.11,0,0,1-.042.021l-3.046.491a1.509,1.509,0,0,0-1.209,1.018,1.528,1.528,0,0,0,.356,1.544l2.249,2.313a.113.113,0,0,1,.01.046.112.112,0,0,1-.01.046l-.527,3.23a1.509,1.509,0,0,0,2.228,1.573l2.654-1.473a.093.093,0,0,1,.043-.01.089.089,0,0,1,.043.01l2.654,1.473a1.516,1.516,0,0,0,2.227-1.573l-.491-3.216a.086.086,0,0,1,0-.086Z" transform="translate(-1556.012 -2464.999)" fill="#a9a4d1"/>
    </g>
  </g>
</svg>
