<svg id="icon" xmlns="http://www.w3.org/2000/svg" width="42" height="43" viewBox="0 0 42 43">
  <rect id="background" width="42" height="43" rx="14" transform="translate(0 0)" fill="#a9a4d1" opacity="0.17"/>
  <g id="thumb-up_1" data-name="thumb-up 1" transform="translate(11 12.872)">
    <path id="XMLID_254" data-name="XMLID 254" d="M1169.122,2472.321l-1.771,6.209a2.145,2.145,0,0,1-2.052,1.548h-9.588a.711.711,0,0,1-.711-.711V2469.4a.705.705,0,0,1,.141-.425l3.837-5.152a2.153,2.153,0,0,1,3.85,1.326v3.539h3.56a2.847,2.847,0,0,1,2.735,3.629Z" transform="translate(-1149.38 -2463)" fill="#a9a4d1" stroke="rgba(0,0,0,0)" stroke-width="1"/>
    <path id="XMLID_256" data-name="XMLID 256" d="M3.333,11H.667A.678.678,0,0,1,0,10.312V.687A.678.678,0,0,1,.667,0H3.333A.678.678,0,0,1,4,.687v9.625A.678.678,0,0,1,3.333,11ZM2,7.219A1.032,1.032,0,0,0,2,9.281,1.032,1.032,0,0,0,2,7.219Z" transform="translate(0 6.128)" fill="#a9a4d1" stroke="rgba(0,0,0,0)" stroke-width="1"/>
  </g>
</svg>
