<svg id="icon" xmlns="http://www.w3.org/2000/svg" width="43" height="43" viewBox="0 0 43 43">
  <rect id="background" width="43" height="43" rx="14" transform="translate(0 0)" fill="#a9a4d1" opacity="0.17"/>
  <g id="energy_2_1" data-name="energy (2) 1" transform="translate(12.601 10.026)">
    <path id="Vector" d="M356.219,2467.241a.667.667,0,0,0-.6-.381h-6.691l4.05-6.854A.667.667,0,0,0,352.4,2459h-5.717a.666.666,0,0,0-.576.331l-7.5,12.861a.667.667,0,0,0,.576,1h6.649l-1.937,7.746a.667.667,0,0,0,1.164.584l11.076-13.577a.666.666,0,0,0,.086-.707Z" transform="translate(-338.514 -2459)" fill="#a9a4d1" stroke="rgba(0,0,0,0)" stroke-width="1"/>
  </g>
</svg>
