<svg xmlns="http://www.w3.org/2000/svg" width="375" height="135" viewBox="0 0 375 135">
  <g id="Group_10303" data-name="Group 10303" transform="translate(-577 -372)">
    <g id="default_avatar_400x400" transform="translate(577 372)" fill="none" stroke="#707070" stroke-width="1" opacity="0.45">
      <rect width="375" height="135" rx="16" stroke="none"/>
      <rect x="0.5" y="0.5" width="374" height="134" rx="15.5" fill="none"/>
    </g>
    <g id="Group_10243" data-name="Group 10243" transform="translate(740.5 395.396)">
      <path id="Path_21325" data-name="Path 21325" d="M38.2,12.714c-2.687-16.284-25.717-16.287-28.4,0C-3.548,15.749-1.729,35.146,12.1,35.459h9.61V23.469l-2.4,2.38a2.287,2.287,0,0,1-3.234-3.234l6.224-6.209a2.275,2.275,0,0,1,2.563-.58c.3-.189,6.672,6.507,7.048,6.788a2.287,2.287,0,0,1-3.234,3.234l-2.4-2.38v11.99H35.9C49.72,35.147,51.557,15.753,38.2,12.714Z" transform="translate(0 0)" fill="#d3d3d1"/>
      <path id="Path_21326" data-name="Path 21326" d="M14.5,31.145v2.273a2.288,2.288,0,1,0,4.576,0V23.456H14.5v7.689Z" transform="translate(7.214 12.003)" fill="#d3d3d1"/>
    </g>
    <text id="أرفق_صورة_هنا" data-name="أرفق صورة هنا" transform="translate(810 477)" fill="#164734" font-size="16" font-family="Luma-Regular, Luma" letter-spacing="0.025em"><tspan x="-89.6" y="0">أرفق صورة هنا</tspan></text>
  </g>
</svg>
