<svg xmlns="http://www.w3.org/2000/svg" width="12.522" height="11.094" viewBox="0 0 12.522 11.094">
  <path id="Vector" d="M328.234,8947.968c.008.121.008.243.008.364,0,3.7-2.582,7.965-7.3,7.965A6.819,6.819,0,0,1,317,8955.04a4.8,4.8,0,0,0,.62.035,4.877,4.877,0,0,0,3.186-1.2,2.61,2.61,0,0,1-2.4-1.941,3.047,3.047,0,0,0,.485.043,2.5,2.5,0,0,0,.676-.095,2.75,2.75,0,0,1-2.058-2.748v-.034a2.426,2.426,0,0,0,1.16.355,2.873,2.873,0,0,1-1.144-2.332,2.978,2.978,0,0,1,.35-1.413,7.112,7.112,0,0,0,5.292,2.93,3.421,3.421,0,0,1-.064-.642,2.689,2.689,0,0,1,2.566-2.8,2.466,2.466,0,0,1,1.875.884,4.807,4.807,0,0,0,1.629-.676,2.762,2.762,0,0,1-1.128,1.543,4.829,4.829,0,0,0,1.478-.434,5.83,5.83,0,0,1-1.287,1.447Z" transform="translate(-316.999 -8945.203)" fill="#3cb5db"/>
</svg>
