<svg xmlns="http://www.w3.org/2000/svg" width="98" height="97" viewBox="0 0 98 97">
  <g id="icon" transform="translate(-0.356 -3.798)">
    <g id="Rectangle_14" data-name="Rectangle 14" transform="translate(0.356 3.798)" fill="none" stroke="#a9a4d1" stroke-width="1" stroke-dasharray="4 8">
      <rect width="98" height="97" rx="6" stroke="none"/>
      <rect x="0.5" y="0.5" width="97" height="96" rx="5.5" fill="none"/>
    </g>
    <path id="Vector" d="M44.467,43H13.534A1.946,1.946,0,0,1,11.6,41.045V29.318a5.838,5.838,0,0,1,5.8-5.864H40.6a5.839,5.839,0,0,1,5.8,5.864V41.045A1.946,1.946,0,0,1,44.467,43Zm11.6-1.955H48.334V29.318a7.745,7.745,0,0,0-1.076-3.909H52.2A5.838,5.838,0,0,1,58,31.273v7.818A1.946,1.946,0,0,1,56.068,41.045Zm-46.4,0H1.933A1.946,1.946,0,0,1,0,39.091V31.273a5.839,5.839,0,0,1,5.8-5.864h4.942a7.758,7.758,0,0,0-1.075,3.909V41.044ZM46.4,21.5a7.531,7.531,0,0,1-4.712-1.641,7.938,7.938,0,0,1-2.718-4.123A11.791,11.791,0,0,0,40.6,9.772c0-.359-.019-.742-.055-1.138A7.675,7.675,0,0,1,46.4,5.864a7.819,7.819,0,0,1,0,15.636Zm-34.8,0a7.819,7.819,0,0,1,0-15.636,7.676,7.676,0,0,1,5.856,2.771c-.038.411-.057.783-.057,1.138a11.817,11.817,0,0,0,1.628,5.964,7.941,7.941,0,0,1-2.717,4.123A7.526,7.526,0,0,1,11.6,21.5ZM29,19.547a9.549,9.549,0,0,1-6.834-2.863,9.85,9.85,0,0,1,0-13.821,9.587,9.587,0,0,1,13.667,0,9.851,9.851,0,0,1,0,13.821A9.548,9.548,0,0,1,29,19.547Z" transform="translate(20.356 25.798)" fill="#a9a4d1"/>
  </g>
</svg>
