<svg xmlns="http://www.w3.org/2000/svg" width="38.672" height="12.793" viewBox="0 0 38.672 12.793">
  <g id="Group_10025" data-name="Group 10025" transform="translate(0)">
    <path id="Shape_328" data-name="Shape 328" d="M1548.063,4911.178l-.37-1.9h-4.011l-.658,1.9h-3.289l4.706-11.833a1.461,1.461,0,0,1,1.457-.953h2.537l2.526,12.786Zm-1.814-9.308-1.659,4.785h2.591Zm-10.691.167c0,1.4,4.4,1.7,4.4,4.908,0,3.092-3.249,4.229-5.4,4.229a8.7,8.7,0,0,1-3.562-.7l.47-2.773c1.292,1.057,5.207,1.357,5.207-.319s-4.365-1.716-4.365-4.909c0-3.392,3.719-4.09,5.285-4.09a8.957,8.957,0,0,1,2.838.539l-.45,2.655C1538.631,4900.82,1535.558,4900.639,1535.558,4902.037Zm-9.66,9.141,1.972-12.786h3.156l-1.972,12.786Zm-7.567,0-2.738-11.1a11.943,11.943,0,0,1,1.38,1.006,10.011,10.011,0,0,1,2.906,4.2h0l.356,1.895,3.009-8.794h3.4l-5.021,12.786Zm-5.566-12.437-.143-.043Zm-.323-.1-.07-.018Zm.776.25c-.068-.025-.127-.045-.188-.066C1513.092,4898.852,1513.148,4898.87,1513.217,4898.9Zm2.189,1.064c-.1-.061-.2-.118-.294-.174C1515.21,4899.843,1515.306,4899.9,1515.406,4899.96Zm-.754-.426c-.086-.045-.174-.091-.257-.133C1514.479,4899.444,1514.565,4899.49,1514.652,4899.535Zm-.785-.377-.173-.075Z" transform="translate(-1512.289 -4898.385)" fill="#494ca3"/>
    <path id="Shape_328-2" data-name="Shape 328" d="M1519.905,4905.29l-1.062-5.749a1.378,1.378,0,0,0-1.5-1.151h-4.973l-.058.216a11.952,11.952,0,0,1,4.684,2.479A10.012,10.012,0,0,1,1519.905,4905.29Z" transform="translate(-1512.315 -4898.383)" fill="#ffc000"/>
  </g>
</svg>
