<svg xmlns="http://www.w3.org/2000/svg" width="17.787" height="12.807" viewBox="0 0 17.787 12.807">
  <path id="Vector" d="M8.892,12.807a51.871,51.871,0,0,1-6.948-.382,2.218,2.218,0,0,1-1.573-1.6A24.728,24.728,0,0,1,0,6.417,24.726,24.726,0,0,1,.371,2.005,2.265,2.265,0,0,1,1.944.384,51.605,51.605,0,0,1,8.892,0a51.626,51.626,0,0,1,6.95.384,2.265,2.265,0,0,1,1.573,1.621,24.725,24.725,0,0,1,.371,4.412,24.727,24.727,0,0,1-.371,4.412,2.218,2.218,0,0,1-1.573,1.6A51.892,51.892,0,0,1,8.892,12.807Zm-1.818-9.1h0V9.125l4.649-2.708L7.075,3.709Z" fill="#ff2a2a"/>
</svg>
